<score-partwise><movement-title>Music21 Fragment</movement-title><identification><creator type="composer">Music21</creator><encoding><encoding-date>2016-04-18</encoding-date><software>Music21</software></encoding></identification><defaults><scaling><millimeters>7</millimeters><tenths>40</tenths></scaling></defaults><part-list><score-part id="P60585790668cd33b831800092e03052e"><part-name /></score-part></part-list><part id="P60585790668cd33b831800092e03052e"><measure number="1"><attributes><divisions>10080</divisions><time><beats>3</beats><beat-type>4</beat-type></time><clef><sign>G</sign><line>2</line></clef></attributes><direction><direction-type><metronome parentheses="no"><beat-unit>quarter</beat-unit><per-minute>60</per-minute></metronome></direction-type><sound tempo="60" /></direction><note><pitch><step>B</step><alter>0</alter><octave>3</octave></pitch><duration>10080</duration><type>quarter</type><accidental>natural</accidental></note><note><rest /><duration>10080</duration><type>quarter</type></note><note><rest /><duration>3360</duration><type>eighth</type><time-modification><actual-notes>3</actual-notes><normal-notes>2</normal-notes><normal-type>eighth</normal-type></time-modification><notations><tuplet bracket="no" placement="above" type="start" /><tuplet type="stop" /></notations></note><note><rest /><duration>10080</duration><type>quarter</type></note><note><pitch><step>E</step><alter>-1</alter><octave>3</octave></pitch><duration>3360</duration><type>eighth</type><accidental>flat</accidental><time-modification><actual-notes>3</actual-notes><normal-notes>2</normal-notes><normal-type>eighth</normal-type></time-modification><notations><tuplet bracket="yes" placement="above" type="start" /></notations></note><note><rest /><duration>3360</duration><type>eighth</type><time-modification><actual-notes>3</actual-notes><normal-notes>2</normal-notes><normal-type>eighth</normal-type></time-modification></note><note><rest /><duration>1680</duration><type>16th</type><time-modification><actual-notes>3</actual-notes><normal-notes>2</normal-notes><normal-type>16th</normal-type></time-modification></note><note><rest /><duration>3360</duration><type>eighth</type><time-modification><actual-notes>3</actual-notes><normal-notes>2</normal-notes><normal-type>eighth</normal-type></time-modification><notations><tuplet type="stop" /></notations></note><note><pitch><step>E</step><alter>0</alter><octave>4</octave></pitch><duration>8400</duration><tie type="start" /><type>quarter</type><accidental>natural</accidental><time-modification><actual-notes>6</actual-notes><normal-notes>5</normal-notes><normal-type>32nd</normal-type></time-modification><notations><tied type="start" /><tuplet bracket="yes" placement="above" type="start" /></notations></note><note><pitch><step>E</step><alter>-1</alter><octave>3</octave></pitch><duration>1680</duration><type>16th</type><time-modification><actual-notes>3</actual-notes><normal-notes>2</normal-notes><normal-type>16th</normal-type></time-modification><notations><tuplet type="stop" /></notations></note><note><rest /><duration>5040</duration><type>eighth</type></note></measure><measure number="2"><attributes><divisions>10080</divisions></attributes><direction><direction-type><metronome parentheses="no"><beat-unit>quarter</beat-unit><per-minute>200</per-minute></metronome></direction-type><sound tempo="200" /></direction><note><pitch><step>E</step><alter>0</alter><octave>4</octave></pitch><duration>7560</duration><tie type="stop" /><type>eighth</type><dot /><accidental>natural</accidental><notations><tied type="stop" /></notations></note><note><rest /><duration>10080</duration><type>quarter</type></note><note><rest /><duration>2520</duration><type>16th</type></note><note><pitch><step>F</step><alter>0</alter><octave>4</octave></pitch><duration>8400</duration><type>quarter</type><accidental>natural</accidental><time-modification><actual-notes>6</actual-notes><normal-notes>5</normal-notes><normal-type>32nd</normal-type></time-modification><notations><tuplet bracket="yes" placement="above" type="start" /></notations></note><note><pitch><step>G</step><alter>1</alter><octave>3</octave></pitch><duration>6720</duration><type>quarter</type><accidental>sharp</accidental><time-modification><actual-notes>3</actual-notes><normal-notes>2</normal-notes><normal-type>quarter</normal-type></time-modification><notations><tuplet type="stop" /></notations></note><note><rest /><duration>3360</duration><type>eighth</type><time-modification><actual-notes>3</actual-notes><normal-notes>2</normal-notes><normal-type>eighth</normal-type></time-modification><notations><tuplet bracket="yes" placement="above" type="start" /></notations></note><note><rest /><duration>1680</duration><type>16th</type><time-modification><actual-notes>3</actual-notes><normal-notes>2</normal-notes><normal-type>16th</normal-type></time-modification><notations><tuplet type="stop" /></notations></note></measure><measure number="3"><attributes><divisions>10080</divisions></attributes><note><rest /><duration>10080</duration><type>quarter</type></note><note><rest /><duration>10080</duration><type>quarter</type></note><note><rest /><duration>10080</duration><type>quarter</type></note><note><rest /><duration>10080</duration><type>quarter</type></note></measure><measure number="4"><attributes><divisions>10080</divisions></attributes><note><rest /><duration>10080</duration><type>quarter</type></note><note><rest /><duration>10080</duration><type>quarter</type></note><note><rest /><duration>10080</duration><type>quarter</type></note><note><rest /><duration>10080</duration><type>quarter</type></note></measure><measure number="5"><attributes><divisions>10080</divisions></attributes><note><rest /><duration>6720</duration><type>quarter</type><time-modification><actual-notes>3</actual-notes><normal-notes>2</normal-notes><normal-type>quarter</normal-type></time-modification><notations><tuplet bracket="no" placement="above" type="start" /><tuplet type="stop" /></notations></note><note><rest /><duration>10080</duration><type>quarter</type></note><note><pitch><step>G</step><alter>1</alter><octave>3</octave></pitch><duration>3360</duration><tie type="start" /><type>eighth</type><accidental>sharp</accidental><time-modification><actual-notes>3</actual-notes><normal-notes>2</normal-notes><normal-type>eighth</normal-type></time-modification><notations><tied type="start" /><tuplet bracket="no" placement="above" type="start" /><tuplet type="stop" /></notations></note><note><pitch><step>G</step><alter>1</alter><octave>3</octave></pitch><duration>7560</duration><tie type="stop" /><type>eighth</type><dot /><notations><tied type="stop" /></notations></note><note><rest /><duration>10080</duration><type>quarter</type></note><note><rest /><duration>2520</duration><type>16th</type></note></measure><measure number="6"><attributes><divisions>10080</divisions></attributes><note><rest /><duration>10080</duration><type>quarter</type></note><note><rest /><duration>10080</duration><type>quarter</type></note><note><rest /><duration>10080</duration><type>quarter</type></note><note><rest /><duration>10080</duration><type>quarter</type></note></measure><measure number="7"><attributes><divisions>10080</divisions></attributes><note><pitch><step>E</step><alter>0</alter><octave>4</octave></pitch><duration>10080</duration><tie type="start" /><type>quarter</type><accidental>natural</accidental><notations><tied type="start" /></notations></note><note><rest /><duration>10080</duration><type>quarter</type></note><note><pitch><step>E</step><alter>0</alter><octave>4</octave></pitch><duration>10080</duration><tie type="stop" /><tie type="start" /><type>quarter</type><notations><tied type="stop" /><tied type="start" /></notations></note><note><rest /><duration>10080</duration><type>quarter</type></note></measure><measure number="8"><attributes><divisions>10080</divisions></attributes><note><pitch><step>E</step><alter>0</alter><octave>4</octave></pitch><duration>5040</duration><tie type="stop" /><type>eighth</type><accidental>natural</accidental><notations><tied type="stop" /></notations></note><note><rest /><duration>10080</duration><type>quarter</type></note><note><rest /><duration>5040</duration><type>eighth</type></note><note><pitch><step>G</step><alter>1</alter><octave>3</octave></pitch><duration>10080</duration><tie type="start" /><type>quarter</type><accidental>sharp</accidental><notations><tied type="start" /></notations></note><note><rest /><duration>10080</duration><type>quarter</type></note></measure><measure number="9"><attributes><divisions>10080</divisions></attributes><note><pitch><step>G</step><alter>1</alter><octave>3</octave></pitch><duration>10080</duration><tie type="stop" /><type>quarter</type><accidental>sharp</accidental><notations><tied type="stop" /></notations></note><note><rest /><duration>10080</duration><type>quarter</type></note><note><rest /><duration>10080</duration><type>quarter</type></note><note><rest /><duration>10080</duration><type>quarter</type></note></measure><measure number="10"><attributes><divisions>10080</divisions></attributes><note><rest /><duration>8400</duration><type>quarter</type><time-modification><actual-notes>6</actual-notes><normal-notes>5</normal-notes><normal-type>32nd</normal-type></time-modification><notations><tuplet bracket="no" placement="above" type="start" /><tuplet type="stop" /></notations></note><note><rest /><duration>10080</duration><type>quarter</type></note><note><pitch><step>G</step><alter>1</alter><octave>4</octave></pitch><duration>1680</duration><tie type="start" /><type>16th</type><accidental>sharp</accidental><time-modification><actual-notes>3</actual-notes><normal-notes>2</normal-notes><normal-type>16th</normal-type></time-modification><notations><tied type="start" /><tuplet bracket="no" placement="above" type="start" /><tuplet type="stop" /></notations></note><note><pitch><step>G</step><alter>1</alter><octave>4</octave></pitch><duration>10080</duration><tie type="stop" /><tie type="start" /><type>quarter</type><notations><tied type="stop" /><tied type="start" /></notations></note><note><rest /><duration>10080</duration><type>quarter</type></note></measure><measure number="11"><attributes><divisions>10080</divisions></attributes><note><pitch><step>G</step><alter>1</alter><octave>4</octave></pitch><duration>10080</duration><tie type="stop" /><tie type="start" /><type>quarter</type><accidental>sharp</accidental><notations><tied type="stop" /><tied type="start" /></notations></note><note><rest /><duration>10080</duration><type>quarter</type></note><note><pitch><step>G</step><alter>1</alter><octave>4</octave></pitch><duration>2520</duration><tie type="stop" /><type>16th</type><notations><tied type="stop" /></notations></note><note><rest /><duration>10080</duration><type>quarter</type></note><note><rest /><duration>7560</duration><type>eighth</type><dot /></note></measure><measure number="12"><attributes><divisions>10080</divisions></attributes><note><rest /><duration>10080</duration><type>quarter</type></note><note><rest /><duration>10080</duration><type>quarter</type></note><note><rest /><duration>10080</duration><type>quarter</type></note><note><rest /><duration>10080</duration><type>quarter</type></note></measure><measure number="13"><attributes><divisions>10080</divisions></attributes><note><rest /><duration>10080</duration><type>quarter</type></note><note><rest /><duration>10080</duration><type>quarter</type></note><note><rest /><duration>5040</duration><type>eighth</type></note><note><rest /><duration>10080</duration><type>quarter</type></note><note><pitch><step>B</step><alter>-1</alter><octave>3</octave></pitch><duration>5040</duration><tie type="start" /><type>eighth</type><accidental>flat</accidental><notations><tied type="start" /></notations></note></measure><measure number="14"><attributes><divisions>10080</divisions></attributes><note><pitch><step>B</step><alter>-1</alter><octave>3</octave></pitch><duration>10080</duration><tie type="stop" /><tie type="start" /><type>quarter</type><notations><tied type="stop" /><tied type="start" /></notations></note><note><rest /><duration>10080</duration><type>quarter</type></note><note><pitch><step>B</step><alter>-1</alter><octave>3</octave></pitch><duration>10080</duration><tie type="stop" /><tie type="start" /><type>quarter</type><accidental>flat</accidental><notations><tied type="stop" /><tied type="start" /></notations></note><note><rest /><duration>10080</duration><type>quarter</type></note></measure><measure number="15"><attributes><divisions>10080</divisions></attributes><note><pitch><step>B</step><alter>-1</alter><octave>3</octave></pitch><duration>10080</duration><tie type="stop" /><tie type="start" /><type>quarter</type><accidental>flat</accidental><notations><tied type="stop" /><tied type="start" /></notations></note><note><rest /><duration>10080</duration><type>quarter</type></note><note><pitch><step>B</step><alter>-1</alter><octave>3</octave></pitch><duration>5040</duration><tie type="stop" /><type>eighth</type><notations><tied type="stop" /></notations></note><note><rest /><duration>10080</duration><type>quarter</type></note><note><rest /><duration>2520</duration><type>16th</type></note><note><pitch><step>F</step><alter>1</alter><octave>4</octave></pitch><duration>2520</duration><tie type="start" /><type>16th</type><accidental>sharp</accidental><notations><tied type="start" /></notations></note></measure><measure number="16"><attributes><divisions>10080</divisions></attributes><note><pitch><step>F</step><alter>1</alter><octave>4</octave></pitch><duration>10080</duration><tie type="stop" /><tie type="start" /><type>quarter</type><notations><tied type="stop" /><tied type="start" /></notations></note><note><rest /><duration>10080</duration><type>quarter</type></note><note><pitch><step>F</step><alter>1</alter><octave>4</octave></pitch><duration>10080</duration><tie type="stop" /><tie type="start" /><type>quarter</type><accidental>sharp</accidental><notations><tied type="stop" /><tied type="start" /></notations></note><note><rest /><duration>10080</duration><type>quarter</type></note></measure><measure number="17"><attributes><divisions>10080</divisions></attributes><note><pitch><step>F</step><alter>1</alter><octave>4</octave></pitch><duration>7560</duration><tie type="stop" /><type>eighth</type><dot /><accidental>sharp</accidental><notations><tied type="stop" /></notations></note><note><rest /><duration>10080</duration><type>quarter</type></note><note><rest /><duration>2520</duration><type>16th</type></note><note><rest /><duration>10080</duration><type>quarter</type></note><note><rest /><duration>10080</duration><type>quarter</type></note></measure><measure number="18"><attributes><divisions>10080</divisions></attributes><note><rest /><duration>10080</duration><type>quarter</type></note><note><rest /><duration>10080</duration><type>quarter</type></note><note><rest /><duration>10080</duration><type>quarter</type></note><note><rest /><duration>10080</duration><type>quarter</type></note></measure><measure number="19"><attributes><divisions>10080</divisions></attributes><note><pitch><step>A</step><alter>0</alter><octave>4</octave></pitch><duration>10080</duration><tie type="start" /><type>quarter</type><accidental>natural</accidental><notations><tied type="start" /></notations></note><note><rest /><duration>10080</duration><type>quarter</type></note><note><pitch><step>A</step><alter>0</alter><octave>4</octave></pitch><duration>10080</duration><tie type="stop" /><type>quarter</type><notations><tied type="stop" /></notations></note><note><rest /><duration>10080</duration><type>quarter</type></note></measure><measure number="20"><attributes><divisions>10080</divisions></attributes><note><rest /><duration>10080</duration><type>quarter</type></note><note><rest /><duration>10080</duration><type>quarter</type></note><note><rest /><duration>5040</duration><type>eighth</type></note><note><rest /><duration>10080</duration><type>quarter</type></note><note><pitch><step>G</step><alter>0</alter><octave>3</octave></pitch><duration>5040</duration><tie type="start" /><type>eighth</type><accidental>natural</accidental><notations><tied type="start" /></notations></note></measure><measure number="21"><attributes><divisions>10080</divisions></attributes><note><pitch><step>G</step><alter>0</alter><octave>3</octave></pitch><duration>10080</duration><tie type="stop" /><type>quarter</type><notations><tied type="stop" /></notations></note><note><rest /><duration>10080</duration><type>quarter</type></note><note><rest /><duration>10080</duration><type>quarter</type></note><note><rest /><duration>10080</duration><type>quarter</type></note></measure><measure number="22"><attributes><divisions>10080</divisions></attributes><note><rest /><duration>10080</duration><type>quarter</type></note><note><rest /><duration>10080</duration><type>quarter</type></note><note><pitch><step>G</step><alter>0</alter><octave>4</octave></pitch><duration>10080</duration><tie type="start" /><type>quarter</type><accidental>natural</accidental><notations><tied type="start" /></notations></note><note><rest /><duration>10080</duration><type>quarter</type></note></measure><measure number="23"><attributes><divisions>10080</divisions></attributes><note><pitch><step>G</step><alter>0</alter><octave>4</octave></pitch><duration>1680</duration><tie type="stop" /><type>16th</type><accidental>natural</accidental><time-modification><actual-notes>3</actual-notes><normal-notes>2</normal-notes><normal-type>16th</normal-type></time-modification><notations><tied type="stop" /><tuplet bracket="no" placement="above" type="start" /><tuplet type="stop" /></notations></note><note><rest /><duration>10080</duration><type>quarter</type></note><note><pitch><step>C</step><alter>1</alter><octave>4</octave></pitch><duration>8400</duration><tie type="start" /><type>quarter</type><accidental>sharp</accidental><time-modification><actual-notes>6</actual-notes><normal-notes>5</normal-notes><normal-type>32nd</normal-type></time-modification><notations><tied type="start" /><tuplet bracket="no" placement="above" type="start" /><tuplet type="stop" /></notations></note><note><pitch><step>C</step><alter>1</alter><octave>4</octave></pitch><duration>10080</duration><tie type="stop" /><tie type="start" /><type>quarter</type><notations><tied type="stop" /><tied type="start" /></notations></note><note><rest /><duration>10080</duration><type>quarter</type></note></measure><measure number="24"><attributes><divisions>10080</divisions></attributes><note><pitch><step>C</step><alter>1</alter><octave>4</octave></pitch><duration>10080</duration><tie type="stop" /><tie type="start" /><type>quarter</type><accidental>sharp</accidental><notations><tied type="stop" /><tied type="start" /></notations></note><note><rest /><duration>10080</duration><type>quarter</type></note><note><pitch><step>C</step><alter>1</alter><octave>4</octave></pitch><duration>5040</duration><tie type="stop" /><type>eighth</type><notations><tied type="stop" /></notations></note><note><rest /><duration>10080</duration><type>quarter</type></note><note><rest /><duration>5040</duration><type>eighth</type></note></measure><measure number="25"><attributes><divisions>10080</divisions></attributes><note><rest /><duration>6720</duration><type>quarter</type><time-modification><actual-notes>3</actual-notes><normal-notes>2</normal-notes><normal-type>quarter</normal-type></time-modification><notations><tuplet bracket="no" placement="above" type="start" /><tuplet type="stop" /></notations></note><note><rest /><duration>10080</duration><type>quarter</type></note><note><pitch><step>E</step><alter>0</alter><octave>4</octave></pitch><duration>3360</duration><tie type="start" /><type>eighth</type><accidental>natural</accidental><time-modification><actual-notes>3</actual-notes><normal-notes>2</normal-notes><normal-type>eighth</normal-type></time-modification><notations><tied type="start" /><tuplet bracket="no" placement="above" type="start" /><tuplet type="stop" /></notations></note><note><pitch><step>E</step><alter>0</alter><octave>4</octave></pitch><duration>10080</duration><tie type="stop" /><tie type="start" /><type>quarter</type><notations><tied type="stop" /><tied type="start" /></notations></note><note><rest /><duration>10080</duration><type>quarter</type></note></measure><measure number="26"><attributes><divisions>10080</divisions></attributes><note><pitch><step>E</step><alter>0</alter><octave>4</octave></pitch><duration>2520</duration><tie type="stop" /><type>16th</type><accidental>natural</accidental><notations><tied type="stop" /></notations></note><note><rest /><duration>10080</duration><type>quarter</type></note><note><rest /><duration>7560</duration><type>eighth</type><dot /></note><note><rest /><duration>10080</duration><type>quarter</type></note><note><rest /><duration>10080</duration><type>quarter</type></note></measure><measure number="27"><attributes><divisions>10080</divisions></attributes><note><rest /><duration>10080</duration><type>quarter</type></note><note><rest /><duration>10080</duration><type>quarter</type></note><note><rest /><duration>10080</duration><type>quarter</type></note><note><rest /><duration>10080</duration><type>quarter</type></note></measure><measure number="28"><attributes><divisions>10080</divisions></attributes><note><rest /><duration>5040</duration><type>eighth</type></note><note><rest /><duration>10080</duration><type>quarter</type></note><note><pitch><step>G</step><alter>0</alter><octave>3</octave></pitch><duration>5040</duration><tie type="start" /><type>eighth</type><accidental>natural</accidental><notations><tied type="start" /></notations></note><note><pitch><step>G</step><alter>0</alter><octave>3</octave></pitch><duration>3360</duration><tie type="stop" /><type>eighth</type><time-modification><actual-notes>3</actual-notes><normal-notes>2</normal-notes><normal-type>eighth</normal-type></time-modification><notations><tied type="stop" /><tuplet bracket="no" placement="above" type="start" /><tuplet type="stop" /></notations></note><note><rest /><duration>10080</duration><type>quarter</type></note><note><rest /><duration>6720</duration><type>quarter</type><time-modification><actual-notes>3</actual-notes><normal-notes>2</normal-notes><normal-type>quarter</normal-type></time-modification><notations><tuplet bracket="no" placement="above" type="start" /><tuplet type="stop" /></notations></note></measure><measure number="29"><attributes><divisions>10080</divisions></attributes><note><rest /><duration>8400</duration><type>quarter</type><time-modification><actual-notes>6</actual-notes><normal-notes>5</normal-notes><normal-type>32nd</normal-type></time-modification><notations><tuplet bracket="no" placement="above" type="start" /><tuplet type="stop" /></notations></note><note><rest /><duration>10080</duration><type>quarter</type></note><note><pitch><step>F</step><alter>0</alter><octave>3</octave></pitch><duration>1680</duration><tie type="start" /><type>16th</type><accidental>natural</accidental><time-modification><actual-notes>3</actual-notes><normal-notes>2</normal-notes><normal-type>16th</normal-type></time-modification><notations><tied type="start" /><tuplet bracket="no" placement="above" type="start" /><tuplet type="stop" /></notations></note><note><pitch><step>F</step><alter>0</alter><octave>3</octave></pitch><duration>10080</duration><tie type="stop" /><tie type="start" /><type>quarter</type><notations><tied type="stop" /><tied type="start" /></notations></note><note><rest /><duration>10080</duration><type>quarter</type></note></measure><measure number="30"><attributes><divisions>10080</divisions></attributes><note><pitch><step>F</step><alter>0</alter><octave>3</octave></pitch><duration>8400</duration><tie type="stop" /><type>quarter</type><accidental>natural</accidental><time-modification><actual-notes>6</actual-notes><normal-notes>5</normal-notes><normal-type>32nd</normal-type></time-modification><notations><tied type="stop" /><tuplet bracket="no" placement="above" type="start" /><tuplet type="stop" /></notations></note><note><rest /><duration>10080</duration><type>quarter</type></note><note><rest /><duration>1680</duration><type>16th</type><time-modification><actual-notes>3</actual-notes><normal-notes>2</normal-notes><normal-type>16th</normal-type></time-modification><notations><tuplet bracket="no" placement="above" type="start" /><tuplet type="stop" /></notations></note><note><rest /><duration>10080</duration><type>quarter</type></note><note><rest /><duration>10080</duration><type>quarter</type></note></measure><measure number="31"><attributes><divisions>10080</divisions></attributes><note><rest /><duration>1680</duration><type>16th</type><time-modification><actual-notes>3</actual-notes><normal-notes>2</normal-notes><normal-type>16th</normal-type></time-modification><notations><tuplet bracket="no" placement="above" type="start" /><tuplet type="stop" /></notations></note><note><rest /><duration>10080</duration><type>quarter</type></note><note><pitch><step>C</step><alter>1</alter><octave>4</octave></pitch><duration>8400</duration><tie type="start" /><type>quarter</type><accidental>sharp</accidental><time-modification><actual-notes>6</actual-notes><normal-notes>5</normal-notes><normal-type>32nd</normal-type></time-modification><notations><tied type="start" /><tuplet bracket="no" placement="above" type="start" /><tuplet type="stop" /></notations></note><note><pitch><step>C</step><alter>1</alter><octave>4</octave></pitch><duration>10080</duration><tie type="stop" /><tie type="start" /><type>quarter</type><notations><tied type="stop" /><tied type="start" /></notations></note><note><pitch><step>G</step><alter>1</alter><octave>3</octave></pitch><duration>10080</duration><tie type="start" /><type>quarter</type><notations><tied type="start" /></notations></note></measure><measure number="32"><attributes><divisions>10080</divisions></attributes><note><pitch><step>C</step><alter>1</alter><octave>4</octave></pitch><duration>10080</duration><tie type="stop" /><tie type="start" /><type>quarter</type><notations><tied type="stop" /><tied type="start" /></notations></note><note><pitch><step>G</step><alter>1</alter><octave>3</octave></pitch><duration>5040</duration><tie type="stop" /><type>eighth</type><notations><tied type="stop" /></notations></note><note><rest /><duration>5040</duration><type>eighth</type></note><note><pitch><step>C</step><alter>1</alter><octave>4</octave></pitch><duration>5040</duration><tie type="stop" /><type>eighth</type><accidental>sharp</accidental><notations><tied type="stop" /></notations></note><note><rest /><duration>10080</duration><type>quarter</type></note><note><rest /><duration>5040</duration><type>eighth</type></note></measure><measure number="33"><attributes><divisions>10080</divisions></attributes><note><rest /><duration>8400</duration><type>quarter</type><time-modification><actual-notes>6</actual-notes><normal-notes>5</normal-notes><normal-type>32nd</normal-type></time-modification><notations><tuplet bracket="no" placement="above" type="start" /><tuplet type="stop" /></notations></note><note><rest /><duration>10080</duration><type>quarter</type></note><note><pitch><step>C</step><alter>1</alter><octave>4</octave></pitch><duration>1680</duration><tie type="start" /><type>16th</type><accidental>sharp</accidental><time-modification><actual-notes>3</actual-notes><normal-notes>2</normal-notes><normal-type>16th</normal-type></time-modification><notations><tied type="start" /><tuplet bracket="no" placement="above" type="start" /><tuplet type="stop" /></notations></note><note><pitch><step>C</step><alter>1</alter><octave>4</octave></pitch><duration>10080</duration><tie type="stop" /><tie type="start" /><type>quarter</type><notations><tied type="stop" /><tied type="start" /></notations></note><note><rest /><duration>1680</duration><type>16th</type><time-modification><actual-notes>3</actual-notes><normal-notes>2</normal-notes><normal-type>16th</normal-type></time-modification><notations><tuplet bracket="yes" placement="above" type="start" /></notations></note><note><pitch><step>D</step><alter>0</alter><octave>4</octave></pitch><duration>8400</duration><tie type="start" /><type>quarter</type><accidental>natural</accidental><time-modification><actual-notes>6</actual-notes><normal-notes>5</normal-notes><normal-type>32nd</normal-type></time-modification><notations><tied type="start" /><tuplet type="stop" /></notations></note></measure><measure number="34"><attributes><divisions>10080</divisions></attributes><note><pitch><step>C</step><alter>1</alter><octave>4</octave></pitch><duration>3360</duration><tie type="stop" /><type>eighth</type><time-modification><actual-notes>3</actual-notes><normal-notes>2</normal-notes><normal-type>eighth</normal-type></time-modification><notations><tied type="stop" /><tuplet bracket="no" placement="above" type="start" /><tuplet type="stop" /></notations></note><note><pitch><step>D</step><alter>0</alter><octave>4</octave></pitch><duration>10080</duration><tie type="stop" /><tie type="start" /><type>quarter</type><accidental>natural</accidental><notations><tied type="stop" /><tied type="start" /></notations></note><note><rest /><duration>6720</duration><type>quarter</type><time-modification><actual-notes>3</actual-notes><normal-notes>2</normal-notes><normal-type>quarter</normal-type></time-modification><notations><tuplet bracket="no" placement="above" type="start" /><tuplet type="stop" /></notations></note><note><rest /><duration>10080</duration><type>quarter</type></note><note><pitch><step>D</step><alter>0</alter><octave>4</octave></pitch><duration>10080</duration><tie type="stop" /><tie type="start" /><type>quarter</type><notations><tied type="stop" /><tied type="start" /></notations></note></measure><measure number="35"><attributes><divisions>10080</divisions></attributes><note><rest /><duration>6720</duration><type>quarter</type><time-modification><actual-notes>3</actual-notes><normal-notes>2</normal-notes><normal-type>quarter</normal-type></time-modification><notations><tuplet bracket="yes" placement="above" type="start" /></notations></note><note><pitch><step>D</step><alter>0</alter><octave>4</octave></pitch><duration>3360</duration><tie type="stop" /><type>eighth</type><accidental>natural</accidental><time-modification><actual-notes>3</actual-notes><normal-notes>2</normal-notes><normal-type>eighth</normal-type></time-modification><notations><tied type="stop" /></notations></note><note><rest /><duration>6720</duration><type>quarter</type><time-modification><actual-notes>3</actual-notes><normal-notes>2</normal-notes><normal-type>quarter</normal-type></time-modification></note><note><pitch><step>G</step><alter>0</alter><octave>3</octave></pitch><duration>3360</duration><tie type="start" /><type>eighth</type><accidental>natural</accidental><time-modification><actual-notes>3</actual-notes><normal-notes>2</normal-notes><normal-type>eighth</normal-type></time-modification><notations><tied type="start" /><tuplet type="stop" /></notations></note><note><pitch><step>G</step><alter>0</alter><octave>3</octave></pitch><duration>10080</duration><tie type="stop" /><tie type="start" /><type>quarter</type><notations><tied type="stop" /><tied type="start" /></notations></note><note><rest /><duration>10080</duration><type>quarter</type></note></measure><measure number="36"><attributes><divisions>10080</divisions></attributes><note><pitch><step>G</step><alter>0</alter><octave>3</octave></pitch><duration>10080</duration><tie type="stop" /><tie type="start" /><type>quarter</type><accidental>natural</accidental><notations><tied type="stop" /><tied type="start" /></notations></note><note><rest /><duration>2520</duration><type>16th</type></note><note><pitch><step>B</step><alter>-1</alter><octave>3</octave></pitch><duration>7560</duration><tie type="start" /><type>eighth</type><dot /><accidental>flat</accidental><notations><tied type="start" /></notations></note><note><pitch><step>G</step><alter>0</alter><octave>3</octave></pitch><duration>10080</duration><tie type="stop" /><tie type="start" /><type>quarter</type><notations><tied type="stop" /><tied type="start" /></notations></note><note><pitch><step>B</step><alter>-1</alter><octave>3</octave></pitch><duration>10080</duration><tie type="stop" /><tie type="start" /><type>quarter</type><notations><tied type="stop" /><tied type="start" /></notations></note></measure><measure number="37"><attributes><divisions>10080</divisions></attributes><note><pitch><step>G</step><alter>0</alter><octave>3</octave></pitch><duration>3360</duration><tie type="stop" /><type>eighth</type><time-modification><actual-notes>3</actual-notes><normal-notes>2</normal-notes><normal-type>eighth</normal-type></time-modification><notations><tied type="stop" /><tuplet bracket="yes" placement="above" type="start" /></notations></note><note><pitch><step>B</step><alter>-1</alter><octave>3</octave></pitch><duration>3360</duration><tie type="stop" /><type>eighth</type><accidental>flat</accidental><time-modification><actual-notes>3</actual-notes><normal-notes>2</normal-notes><normal-type>eighth</normal-type></time-modification><notations><tied type="stop" /></notations></note><note><pitch><step>E</step><alter>-1</alter><octave>3</octave></pitch><duration>6720</duration><tie type="start" /><type>quarter</type><accidental>flat</accidental><time-modification><actual-notes>3</actual-notes><normal-notes>2</normal-notes><normal-type>quarter</normal-type></time-modification><notations><tied type="start" /><tuplet type="stop" /></notations></note><note><rest /><duration>6720</duration><type>quarter</type><time-modification><actual-notes>3</actual-notes><normal-notes>2</normal-notes><normal-type>quarter</normal-type></time-modification><notations><tuplet bracket="no" placement="above" type="start" /><tuplet type="stop" /></notations></note><note><pitch><step>E</step><alter>-1</alter><octave>3</octave></pitch><duration>10080</duration><tie type="stop" /><tie type="start" /><type>quarter</type><notations><tied type="stop" /><tied type="start" /></notations></note><note><rest /><duration>10080</duration><type>quarter</type></note></measure><measure number="38"><attributes><divisions>10080</divisions></attributes><note><pitch><step>E</step><alter>-1</alter><octave>3</octave></pitch><duration>10080</duration><tie type="stop" /><tie type="start" /><type>quarter</type><accidental>flat</accidental><notations><tied type="stop" /><tied type="start" /></notations></note><note><rest /><duration>10080</duration><type>quarter</type></note><note><pitch><step>E</step><alter>-1</alter><octave>3</octave></pitch><duration>5040</duration><tie type="stop" /><type>eighth</type><notations><tied type="stop" /></notations></note><note><rest /><duration>10080</duration><type>quarter</type></note><note><rest /><duration>5040</duration><type>eighth</type></note></measure><measure number="39"><attributes><divisions>10080</divisions></attributes><note><rest /><duration>10080</duration><type>quarter</type></note><note><rest /><duration>10080</duration><type>quarter</type></note><note><rest /><duration>1680</duration><type>16th</type><time-modification><actual-notes>3</actual-notes><normal-notes>2</normal-notes><normal-type>16th</normal-type></time-modification><notations><tuplet bracket="no" placement="above" type="start" /><tuplet type="stop" /></notations></note><note><rest /><duration>10080</duration><type>quarter</type></note><note><pitch><step>F</step><alter>0</alter><octave>4</octave></pitch><duration>8400</duration><tie type="start" /><type>quarter</type><accidental>natural</accidental><time-modification><actual-notes>6</actual-notes><normal-notes>5</normal-notes><normal-type>32nd</normal-type></time-modification><notations><tied type="start" /><tuplet bracket="no" placement="above" type="start" /><tuplet type="stop" /></notations></note></measure><measure number="40"><attributes><divisions>10080</divisions></attributes><note><pitch><step>F</step><alter>0</alter><octave>4</octave></pitch><duration>10080</duration><tie type="stop" /><tie type="start" /><type>quarter</type><notations><tied type="stop" /><tied type="start" /></notations></note><note><rest /><duration>10080</duration><type>quarter</type></note><note><pitch><step>F</step><alter>0</alter><octave>4</octave></pitch><duration>10080</duration><tie type="stop" /><tie type="start" /><type>quarter</type><accidental>natural</accidental><notations><tied type="stop" /><tied type="start" /></notations></note><note><rest /><duration>3360</duration><type>eighth</type><time-modification><actual-notes>3</actual-notes><normal-notes>2</normal-notes><normal-type>eighth</normal-type></time-modification><notations><tuplet bracket="yes" placement="above" type="start" /></notations></note><note><pitch><step>F</step><alter>0</alter><octave>3</octave></pitch><duration>6720</duration><tie type="start" /><type>quarter</type><time-modification><actual-notes>3</actual-notes><normal-notes>2</normal-notes><normal-type>quarter</normal-type></time-modification><notations><tied type="start" /><tuplet type="stop" /></notations></note></measure><measure number="41"><attributes><divisions>10080</divisions></attributes><note><pitch><step>F</step><alter>0</alter><octave>4</octave></pitch><duration>8400</duration><tie type="stop" /><type>quarter</type><time-modification><actual-notes>6</actual-notes><normal-notes>5</normal-notes><normal-type>32nd</normal-type></time-modification><notations><tied type="stop" /><tuplet bracket="no" placement="above" type="start" /><tuplet type="stop" /></notations></note><note><pitch><step>F</step><alter>0</alter><octave>3</octave></pitch><duration>10080</duration><tie type="stop" /><tie type="start" /><type>quarter</type><notations><tied type="stop" /><tied type="start" /></notations></note><note><rest /><duration>1680</duration><type>16th</type><time-modification><actual-notes>3</actual-notes><normal-notes>2</normal-notes><normal-type>16th</normal-type></time-modification><notations><tuplet bracket="no" placement="above" type="start" /><tuplet type="stop" /></notations></note><note><rest /><duration>5040</duration><type>eighth</type></note><note><pitch><step>F</step><alter>0</alter><octave>3</octave></pitch><duration>3360</duration><tie type="stop" /><type>eighth</type><accidental>natural</accidental><time-modification><actual-notes>3</actual-notes><normal-notes>2</normal-notes><normal-type>eighth</normal-type></time-modification><notations><tied type="stop" /><tuplet bracket="no" placement="above" type="start" /><tuplet type="stop" /></notations></note><note><pitch><step>D</step><alter>0</alter><octave>3</octave></pitch><duration>5040</duration><tie type="start" /><type>eighth</type><accidental>natural</accidental><notations><tied type="start" /></notations></note></measure><measure number="42"><attributes><divisions>10080</divisions></attributes><note><pitch><step>D</step><alter>0</alter><octave>3</octave></pitch><duration>8400</duration><tie type="stop" /><type>quarter</type><time-modification><actual-notes>6</actual-notes><normal-notes>5</normal-notes><normal-type>32nd</normal-type></time-modification><notations><tied type="stop" /><tuplet bracket="yes" placement="above" type="start" /></notations></note><note><rest /><duration>1680</duration><type>16th</type><time-modification><actual-notes>3</actual-notes><normal-notes>2</normal-notes><normal-type>16th</normal-type></time-modification><notations><tuplet type="stop" /></notations></note><note><rest /><duration>10080</duration><type>quarter</type></note></measure><measure number="43"><attributes><divisions>10080</divisions></attributes><note><rest /><duration>10080</duration><type>quarter</type></note><note><rest /><duration>10080</duration><type>quarter</type></note></measure><measure number="44"><attributes><divisions>10080</divisions></attributes><note><rest /><duration>10080</duration><type>quarter</type></note><note><rest /><duration>5040</duration><type>eighth</type></note><note><pitch><step>E</step><alter>-1</alter><octave>4</octave></pitch><duration>5040</duration><tie type="start" /><type>eighth</type><accidental>flat</accidental><notations><tied type="start" /></notations></note></measure><measure number="45"><attributes><divisions>10080</divisions></attributes><note><pitch><step>E</step><alter>-1</alter><octave>4</octave></pitch><duration>10080</duration><tie type="stop" /><tie type="start" /><type>quarter</type><notations><tied type="stop" /><tied type="start" /></notations></note><note><pitch><step>E</step><alter>-1</alter><octave>4</octave></pitch><duration>10080</duration><tie type="stop" /><tie type="start" /><type>quarter</type><notations><tied type="stop" /><tied type="start" /></notations></note></measure><measure number="46"><attributes><divisions>10080</divisions></attributes><note><pitch><step>E</step><alter>-1</alter><octave>4</octave></pitch><duration>10080</duration><tie type="stop" /><tie type="start" /><type>quarter</type><notations><tied type="stop" /><tied type="start" /></notations></note><note><pitch><step>E</step><alter>-1</alter><octave>4</octave></pitch><duration>1680</duration><tie type="stop" /><type>16th</type><time-modification><actual-notes>3</actual-notes><normal-notes>2</normal-notes><normal-type>16th</normal-type></time-modification><notations><tied type="stop" /><tuplet bracket="no" placement="above" type="start" /><tuplet type="stop" /></notations></note><barline location="right"><bar-style>light-heavy</bar-style></barline></measure></part></score-partwise>