<score-partwise><work><work-title>My Deepest Feelings</work-title></work><identification><creator type="composer">Eric Whitacre</creator><encoding><encoding-date>2016-04-26</encoding-date><software>marcpy</software></encoding></identification><part-list><score-part id="P1"><part-name>Piano</part-name></score-part></part-list><part id="P1"><measure number="1"><attributes><divisions>10080</divisions><time><beats>3</beats><beat-type>4</beat-type></time><clef><sign>G</sign><line>2</line></clef></attributes><direction><direction-type><metronome><beat-unit>quarter</beat-unit><per-minute>120</per-minute></metronome></direction-type><voice>1</voice><staff>1</staff></direction><note><pitch><step>E</step><alter>-1</alter><octave>3</octave></pitch><duration>10080</duration><voice>0</voice><type>quarter</type></note><note><rest /><duration>0</duration><voice>0</voice><type>eighth</type><time-modification><actual-notes>6</actual-notes><normal-notes>4</normal-notes><normal-type>16th</normal-type></time-modification><notations><tuplet number="1" placement="above" type="start" /></notations></note><note><pitch><step>A</step><alter>-1</alter><octave>3</octave></pitch><duration>0</duration><voice>0</voice><tie type="start" /><type>eighth</type><time-modification><actual-notes>6</actual-notes><normal-notes>4</normal-notes><normal-type>16th</normal-type></time-modification><notations><tied type="start" /></notations></note><note><pitch><step>A</step><alter>-1</alter><octave>3</octave></pitch><duration>0</duration><voice>0</voice><type>16th</type><time-modification><actual-notes>6</actual-notes><normal-notes>4</normal-notes><normal-type>16th</normal-type></time-modification></note><note><rest /><duration>0</duration><voice>0</voice><type>16th</type><time-modification><actual-notes>6</actual-notes><normal-notes>4</normal-notes><normal-type>16th</normal-type></time-modification><notations><tuplet number="1" placement="above" type="end" /></notations></note><note><rest /><duration>0</duration><voice>0</voice><type>16th</type><time-modification><actual-notes>6</actual-notes><normal-notes>4</normal-notes><normal-type>16th</normal-type></time-modification><notations><tuplet number="1" placement="above" type="start" /></notations></note><note><pitch><step>F</step><alter>1</alter><octave>4</octave></pitch><duration>0</duration><voice>0</voice><tie type="start" /><type>quarter</type><time-modification><actual-notes>6</actual-notes><normal-notes>4</normal-notes><normal-type>16th</normal-type></time-modification><notations><tuplet number="1" placement="above" type="end" /><tied type="start" /></notations></note><note><pitch><step>F</step><alter>1</alter><octave>4</octave></pitch><duration>0</duration><voice>0</voice><tie type="start" /><tie type="stop" /><type>16th</type><time-modification><actual-notes>6</actual-notes><normal-notes>4</normal-notes><normal-type>16th</normal-type></time-modification><notations><tuplet number="1" placement="above" type="end" /><tied type="start" /><tied type="stop" /></notations></note></measure><measure number="2"><attributes><divisions>10080</divisions><time><beats>9</beats><beat-type>8</beat-type></time></attributes><note><pitch><step>F</step><alter>1</alter><octave>4</octave></pitch><duration>2520</duration><voice>0</voice><tie type="stop" /><type>16th</type><notations><tied type="stop" /></notations></note><note><rest /><duration>2520</duration><voice>0</voice><type>16th</type></note><note><pitch><step>G</step><alter>0</alter><octave>3</octave></pitch><duration>5040</duration><voice>0</voice><type>eighth</type></note><note><rest /><duration>5040</duration><voice>0</voice><type>eighth</type></note><note><rest /><duration>0</duration><voice>0</voice><tie type="start" /><type>eighth</type><time-modification><actual-notes>9</actual-notes><normal-notes>6</normal-notes><normal-type>16th</normal-type></time-modification><notations><tuplet number="1" placement="above" type="start" /><tied type="start" /></notations></note><note><rest /><duration>0</duration><voice>0</voice><type>16th</type><time-modification><actual-notes>9</actual-notes><normal-notes>6</normal-notes><normal-type>16th</normal-type></time-modification><notations><tuplet number="1" placement="above" type="start" /></notations></note><note><pitch><step>E</step><alter>0</alter><octave>4</octave></pitch><duration>0</duration><voice>0</voice><tie type="start" /><type>quarter</type><time-modification><actual-notes>9</actual-notes><normal-notes>6</normal-notes><normal-type>16th</normal-type></time-modification><notations><tied type="start" /></notations></note><note><pitch><step>E</step><alter>0</alter><octave>4</octave></pitch><duration>0</duration><voice>0</voice><type>16th</type><time-modification><actual-notes>9</actual-notes><normal-notes>6</normal-notes><normal-type>16th</normal-type></time-modification></note><note><rest /><duration>0</duration><voice>0</voice><type>16th</type><time-modification><actual-notes>9</actual-notes><normal-notes>6</normal-notes><normal-type>16th</normal-type></time-modification><notations><tuplet number="1" placement="above" type="end" /></notations></note><note><rest /><duration>0</duration><voice>0</voice><type>16th</type><time-modification><actual-notes>9</actual-notes><normal-notes>6</normal-notes><normal-type>16th</normal-type></time-modification><notations><tuplet number="1" placement="above" type="start" /></notations></note><note><pitch><step>E</step><alter>0</alter><octave>4</octave></pitch><duration>0</duration><voice>0</voice><type>quarter</type><time-modification><actual-notes>9</actual-notes><normal-notes>6</normal-notes><normal-type>16th</normal-type></time-modification></note><note><rest /><duration>0</duration><voice>0</voice><tie type="start" /><type>eighth</type><time-modification><actual-notes>9</actual-notes><normal-notes>6</normal-notes><normal-type>16th</normal-type></time-modification><notations><tied type="start" /></notations></note><note><rest /><duration>0</duration><voice>0</voice><type>16th</type><time-modification><actual-notes>9</actual-notes><normal-notes>6</normal-notes><normal-type>16th</normal-type></time-modification></note><note><pitch><step>G</step><alter>0</alter><octave>4</octave></pitch><duration>0</duration><voice>0</voice><tie type="start" /><type>16th</type><time-modification><actual-notes>9</actual-notes><normal-notes>6</normal-notes><normal-type>16th</normal-type></time-modification><notations><tuplet number="1" placement="above" type="end" /><tied type="start" /></notations></note></measure><measure number="3"><attributes><divisions>10080</divisions><time><beats>2</beats><beat-type>4</beat-type></time></attributes><direction><direction-type><metronome><beat-unit>quarter</beat-unit><per-minute>400</per-minute></metronome></direction-type><voice>1</voice><staff>1</staff></direction><note><pitch><step>G</step><alter>0</alter><octave>4</octave></pitch><duration>10080</duration><voice>0</voice><tie type="start" /><tie type="stop" /><type>quarter</type><notations><tied type="start" /><tied type="stop" /></notations></note><note><pitch><step>G</step><alter>0</alter><octave>4</octave></pitch><duration>10080</duration><voice>0</voice><tie type="start" /><tie type="stop" /><type>quarter</type><notations><tied type="start" /><tied type="stop" /></notations></note></measure><measure number="4"><attributes><divisions>10080</divisions></attributes><note><pitch><step>G</step><alter>0</alter><octave>4</octave></pitch><duration>10080</duration><voice>0</voice><tie type="stop" /><type>quarter</type><notations><tied type="stop" /></notations></note><note><rest /><duration>10080</duration><voice>0</voice><type>quarter</type></note></measure><measure number="5"><attributes><divisions>10080</divisions></attributes><note><rest measure="yes" /><duration>20160</duration><type>whole</type></note></measure><measure number="6"><attributes><divisions>10080</divisions></attributes><note><rest /><duration>0</duration><voice>0</voice><type>eighth</type><time-modification><actual-notes>3</actual-notes><normal-notes>2</normal-notes><normal-type>eighth</normal-type></time-modification><notations><tuplet number="1" placement="above" type="start" /></notations></note><note><pitch><step>F</step><alter>0</alter><octave>4</octave></pitch><duration>0</duration><voice>0</voice><tie type="start" /><type>quarter</type><time-modification><actual-notes>3</actual-notes><normal-notes>2</normal-notes><normal-type>eighth</normal-type></time-modification><notations><tuplet number="1" placement="above" type="end" /><tied type="start" /></notations></note><note><pitch><step>F</step><alter>0</alter><octave>4</octave></pitch><duration>10080</duration><voice>0</voice><tie type="start" /><tie type="stop" /><type>quarter</type><notations><tied type="start" /><tied type="stop" /></notations></note></measure><measure number="7"><attributes><divisions>10080</divisions></attributes><note><pitch><step>F</step><alter>0</alter><octave>4</octave></pitch><duration>10080</duration><voice>0</voice><tie type="start" /><tie type="stop" /><type>quarter</type><notations><tied type="start" /><tied type="stop" /></notations></note><note><pitch><step>F</step><alter>0</alter><octave>4</octave></pitch><duration>5040</duration><voice>0</voice><tie type="start" /><type>eighth</type><notations><tied type="start" /></notations></note><note><pitch><step>F</step><alter>0</alter><octave>4</octave></pitch><duration>2520</duration><voice>0</voice><type>16th</type></note><note><rest /><duration>2520</duration><voice>0</voice><type>16th</type></note></measure><measure number="8"><attributes><divisions>10080</divisions></attributes><note><rest measure="yes" /><duration>20160</duration><type>whole</type></note></measure><measure number="9"><attributes><divisions>10080</divisions></attributes><note><rest /><duration>0</duration><voice>0</voice><type>16th</type><time-modification><actual-notes>6</actual-notes><normal-notes>4</normal-notes><normal-type>16th</normal-type></time-modification><notations><tuplet number="1" placement="above" type="start" /></notations></note><note><pitch><step>E</step><alter>-1</alter><octave>4</octave></pitch><duration>0</duration><voice>0</voice><tie type="start" /><type>quarter</type><time-modification><actual-notes>6</actual-notes><normal-notes>4</normal-notes><normal-type>16th</normal-type></time-modification><notations><tuplet number="1" placement="above" type="end" /><tied type="start" /></notations></note><note><pitch><step>E</step><alter>-1</alter><octave>4</octave></pitch><duration>0</duration><voice>0</voice><tie type="start" /><tie type="stop" /><type>16th</type><time-modification><actual-notes>6</actual-notes><normal-notes>4</normal-notes><normal-type>16th</normal-type></time-modification><notations><tuplet number="1" placement="above" type="end" /><tied type="start" /><tied type="stop" /></notations></note><note><pitch><step>E</step><alter>-1</alter><octave>4</octave></pitch><duration>10080</duration><voice>0</voice><tie type="start" /><tie type="stop" /><type>quarter</type><notations><tied type="start" /><tied type="stop" /></notations></note></measure><measure number="10"><attributes><divisions>10080</divisions></attributes><note><pitch><step>E</step><alter>-1</alter><octave>4</octave></pitch><duration>10080</duration><voice>0</voice><tie type="start" /><tie type="stop" /><type>quarter</type><notations><tied type="start" /><tied type="stop" /></notations></note><note><pitch><step>E</step><alter>-1</alter><octave>4</octave></pitch><duration>0</duration><voice>0</voice><tie type="start" /><type>quarter</type><time-modification><actual-notes>6</actual-notes><normal-notes>4</normal-notes><normal-type>16th</normal-type></time-modification><notations><tuplet number="1" placement="above" type="start" /><tied type="start" /></notations></note><note><pitch><step>E</step><alter>-1</alter><octave>4</octave></pitch><duration>0</duration><voice>0</voice><type>16th</type><time-modification><actual-notes>6</actual-notes><normal-notes>4</normal-notes><normal-type>16th</normal-type></time-modification><notations><tuplet number="1" placement="above" type="start" /></notations></note><note><rest /><duration>0</duration><voice>0</voice><type>16th</type><time-modification><actual-notes>6</actual-notes><normal-notes>4</normal-notes><normal-type>16th</normal-type></time-modification><notations><tuplet number="1" placement="above" type="end" /></notations></note></measure><measure number="11"><attributes><divisions>10080</divisions></attributes><note><rest measure="yes" /><duration>20160</duration><type>whole</type></note></measure><measure number="12"><attributes><divisions>10080</divisions></attributes><note><pitch><step>F</step><alter>0</alter><octave>4</octave></pitch><duration>10080</duration><voice>0</voice><tie type="start" /><type>quarter</type><notations><tied type="start" /></notations></note><note><pitch><step>F</step><alter>0</alter><octave>4</octave></pitch><duration>10080</duration><voice>0</voice><tie type="start" /><tie type="stop" /><type>quarter</type><notations><tied type="start" /><tied type="stop" /></notations></note></measure><measure number="13"><attributes><divisions>10080</divisions></attributes><note><pitch><step>F</step><alter>0</alter><octave>4</octave></pitch><duration>10080</duration><voice>0</voice><tie type="start" /><tie type="stop" /><type>quarter</type><notations><tied type="start" /><tied type="stop" /></notations></note><note><pitch><step>F</step><alter>0</alter><octave>4</octave></pitch><duration>5040</duration><voice>0</voice><tie type="stop" /><type>eighth</type><notations><tied type="stop" /></notations></note><note><rest /><duration>5040</duration><voice>0</voice><type>eighth</type></note></measure><measure number="14"><attributes><divisions>10080</divisions></attributes><note><rest /><duration>10080</duration><voice>0</voice><type>quarter</type></note><note><rest /><duration>0</duration><voice>0</voice><type>quarter</type><time-modification><actual-notes>3</actual-notes><normal-notes>2</normal-notes><normal-type>eighth</normal-type></time-modification><notations><tuplet number="1" placement="above" type="start" /></notations></note><note><pitch><step>A</step><alter>-1</alter><octave>4</octave></pitch><duration>0</duration><voice>0</voice><tie type="start" /><type>eighth</type><time-modification><actual-notes>3</actual-notes><normal-notes>2</normal-notes><normal-type>eighth</normal-type></time-modification><notations><tuplet number="1" placement="above" type="end" /><tied type="start" /></notations></note></measure><measure number="15"><attributes><divisions>10080</divisions></attributes><note><pitch><step>A</step><alter>-1</alter><octave>4</octave></pitch><duration>0</duration><voice>0</voice><tie type="stop" /><type>eighth</type><time-modification><actual-notes>3</actual-notes><normal-notes>2</normal-notes><normal-type>eighth</normal-type></time-modification><notations><tuplet number="1" placement="above" type="start" /><tied type="stop" /></notations></note><note><rest /><duration>0</duration><voice>0</voice><type>quarter</type><time-modification><actual-notes>3</actual-notes><normal-notes>2</normal-notes><normal-type>eighth</normal-type></time-modification><notations><tuplet number="1" placement="above" type="end" /></notations></note><note><rest /><duration>10080</duration><voice>0</voice><type>quarter</type></note></measure><measure number="16"><attributes><divisions>10080</divisions></attributes><note><rest /><duration>10080</duration><voice>0</voice><type>quarter</type></note><note><pitch><step>A</step><alter>-1</alter><octave>4</octave></pitch><duration>10080</duration><voice>0</voice><tie type="start" /><type>quarter</type><notations><tied type="start" /></notations></note></measure><measure number="17"><attributes><divisions>10080</divisions></attributes><note><pitch><step>A</step><alter>-1</alter><octave>4</octave></pitch><duration>10080</duration><voice>0</voice><tie type="start" /><tie type="stop" /><type>quarter</type><notations><tied type="start" /><tied type="stop" /></notations></note><note><pitch><step>A</step><alter>-1</alter><octave>4</octave></pitch><duration>10080</duration><voice>0</voice><tie type="start" /><tie type="stop" /><type>quarter</type><notations><tied type="start" /><tied type="stop" /></notations></note></measure><measure number="18"><attributes><divisions>10080</divisions></attributes><note><pitch><step>A</step><alter>-1</alter><octave>4</octave></pitch><duration>0</duration><voice>0</voice><tie type="stop" /><type>16th</type><time-modification><actual-notes>6</actual-notes><normal-notes>4</normal-notes><normal-type>16th</normal-type></time-modification><notations><tuplet number="1" placement="above" type="start" /><tied type="stop" /></notations></note><note><rest /><duration>0</duration><voice>0</voice><type>16th</type><time-modification><actual-notes>6</actual-notes><normal-notes>4</normal-notes><normal-type>16th</normal-type></time-modification></note><note><pitch><step>A</step><alter>0</alter><octave>4</octave></pitch><duration>0</duration><voice>0</voice><tie type="start" /><type>quarter</type><time-modification><actual-notes>6</actual-notes><normal-notes>4</normal-notes><normal-type>16th</normal-type></time-modification><notations><tuplet number="1" placement="above" type="end" /><tied type="start" /></notations></note><note><pitch><step>A</step><alter>0</alter><octave>4</octave></pitch><duration>10080</duration><voice>0</voice><tie type="start" /><tie type="stop" /><type>quarter</type><notations><tied type="start" /><tied type="stop" /></notations></note></measure><measure number="19"><attributes><divisions>10080</divisions></attributes><note><pitch><step>A</step><alter>0</alter><octave>4</octave></pitch><duration>2520</duration><voice>0</voice><tie type="stop" /><type>16th</type><notations><tied type="stop" /></notations></note><note><rest /><duration>5040</duration><voice>0</voice><tie type="start" /><type>eighth</type><notations><tied type="start" /></notations></note><note><rest /><duration>2520</duration><voice>0</voice><type>16th</type></note><note><rest /><duration>10080</duration><voice>0</voice><type>quarter</type></note></measure><measure number="20"><attributes><divisions>10080</divisions></attributes><note><rest /><duration>5040</duration><voice>0</voice><tie type="start" /><type>eighth</type><notations><tied type="start" /></notations></note><note><rest /><duration>2520</duration><voice>0</voice><type>16th</type></note><note><pitch><step>B</step><alter>0</alter><octave>3</octave></pitch><duration>2520</duration><voice>0</voice><tie type="start" /><type>16th</type><notations><tied type="start" /></notations></note><note><pitch><step>B</step><alter>0</alter><octave>3</octave></pitch><duration>10080</duration><voice>0</voice><tie type="start" /><tie type="stop" /><type>quarter</type><notations><tied type="start" /><tied type="stop" /></notations></note></measure><measure number="21"><attributes><divisions>10080</divisions></attributes><note><pitch><step>B</step><alter>0</alter><octave>3</octave></pitch><duration>0</duration><voice>0</voice><tie type="stop" /><type>quarter</type><time-modification><actual-notes>3</actual-notes><normal-notes>2</normal-notes><normal-type>eighth</normal-type></time-modification><notations><tuplet number="1" placement="above" type="start" /><tied type="stop" /></notations></note><note><rest /><duration>0</duration><voice>0</voice><type>eighth</type><time-modification><actual-notes>3</actual-notes><normal-notes>2</normal-notes><normal-type>eighth</normal-type></time-modification><notations><tuplet number="1" placement="above" type="end" /></notations></note><note><rest /><duration>10080</duration><voice>0</voice><type>quarter</type></note></measure><measure number="22"><attributes><divisions>10080</divisions></attributes><note><rest /><duration>10080</duration><voice>0</voice><type>quarter</type></note><note><rest /><duration>0</duration><voice>0</voice><tie type="start" /><type>quarter</type><time-modification><actual-notes>6</actual-notes><normal-notes>4</normal-notes><normal-type>16th</normal-type></time-modification><notations><tuplet number="1" placement="above" type="start" /><tied type="start" /></notations></note><note><rest /><duration>0</duration><voice>0</voice><type>16th</type><time-modification><actual-notes>6</actual-notes><normal-notes>4</normal-notes><normal-type>16th</normal-type></time-modification><notations><tuplet number="1" placement="above" type="start" /></notations></note><note><pitch><step>G</step><alter>0</alter><octave>4</octave></pitch><duration>0</duration><voice>0</voice><tie type="start" /><type>16th</type><time-modification><actual-notes>6</actual-notes><normal-notes>4</normal-notes><normal-type>16th</normal-type></time-modification><notations><tuplet number="1" placement="above" type="end" /><tied type="start" /></notations></note></measure><measure number="23"><attributes><divisions>10080</divisions></attributes><note><pitch><step>G</step><alter>0</alter><octave>4</octave></pitch><duration>10080</duration><voice>0</voice><tie type="start" /><tie type="stop" /><type>quarter</type><notations><tied type="start" /><tied type="stop" /></notations></note><note><pitch><step>G</step><alter>0</alter><octave>4</octave></pitch><duration>10080</duration><voice>0</voice><tie type="start" /><tie type="stop" /><type>quarter</type><notations><tied type="start" /><tied type="stop" /></notations></note></measure><measure number="24"><attributes><divisions>10080</divisions></attributes><note><pitch><step>G</step><alter>0</alter><octave>4</octave></pitch><duration>0</duration><voice>0</voice><tie type="stop" /><type>eighth</type><time-modification><actual-notes>3</actual-notes><normal-notes>2</normal-notes><normal-type>eighth</normal-type></time-modification><notations><tuplet number="1" placement="above" type="start" /><tied type="stop" /></notations></note><note><rest /><duration>0</duration><voice>0</voice><type>quarter</type><time-modification><actual-notes>3</actual-notes><normal-notes>2</normal-notes><normal-type>eighth</normal-type></time-modification><notations><tuplet number="1" placement="above" type="end" /></notations></note><note><rest /><duration>0</duration><voice>0</voice><tie type="start" /><type>quarter</type><time-modification><actual-notes>3</actual-notes><normal-notes>2</normal-notes><normal-type>eighth</normal-type></time-modification><notations><tuplet number="1" placement="above" type="start" /><tuplet number="1" placement="above" type="end" /><tied type="start" /></notations></note><note><rest /><duration>0</duration><voice>0</voice><type>eighth</type><time-modification><actual-notes>3</actual-notes><normal-notes>2</normal-notes><normal-type>eighth</normal-type></time-modification><notations><tuplet number="1" placement="above" type="start" /><tuplet number="1" placement="above" type="end" /></notations></note></measure></part></score-partwise>